<?xml version="1.0" standalone="no"?>
<!DOCTYPE svg PUBLIC "-//W3C//DTD SVG 20010904//EN"
 "http://www.w3.org/TR/2001/REC-SVG-20010904/DTD/svg10.dtd">
<svg version="1.0" xmlns="http://www.w3.org/2000/svg" width="100.000000pt" height="82.000000pt" viewBox="0 0 100.000000 82.000000" preserveAspectRatio="xMidYMid meet">

<g transform="translate(0.000000,82.000000) scale(0.100000,-0.100000)" fill="#000000" stroke="none">
<path d="M444 759 c-280 -36 -408 -373 -221 -585 30 -35 111 -94 129 -94 19 0
6 31 -19 44 -40 21 -107 94 -134 146 -20 37 -24 60 -24 135 0 106 22 163 90
230 66 67 125 90 225 90 73 0 93 -4 142 -28 71 -35 130 -101 159 -176 29 -77
23 -184 -13 -256 -26 -49 -93 -121 -137 -144 -20 -11 -30 -41 -13 -41 16 0 97
58 129 91 39 41 79 128 88 190 8 56 -8 148 -36 206 -63 129 -218 211 -365 192z"></path>
<path d="M405 601 c-112 -51 -157 -178 -104 -288 26 -54 84 -102 102 -84 9 9
4 18 -22 38 -39 31 -70 94 -71 142 0 51 35 115 81 147 77 53 195 30 246 -47
51 -78 36 -180 -35 -239 -28 -23 -33 -33 -25 -41 17 -17 78 31 103 81 24 46
27 135 6 183 -43 103 -179 155 -281 108z"></path>
<path d="M470 473 c-54 -20 -67 -79 -25 -115 24 -21 25 -25 25 -165 0 -136 1
-143 20 -143 19 0 20 7 20 141 0 138 1 142 25 165 34 31 33 76 -1 103 -27 21
-38 24 -64 14z m49 -47 c9 -11 10 -20 1 -35 -13 -25 -45 -27 -59 -4 -21 38 31
72 58 39z"></path>
</g>
</svg>
